<svg xmlns="http://www.w3.org/2000/svg" data-name="Layer 2" viewBox="0 0 48 48" x="0px" y="0px">
  <title>video music player</title>
  <path d="M16.18,31.67a7,7,0,0,1,0-14h6a7,7,0,0,1,7,7,2,2,0,0,1-4,0,3,3,0,0,0-3-3h-6a3,3,0,0,0,0,6,2,2,0,0,1,0,4Z"/>
  <path d="M31.82,31.67h-6a7,7,0,0,1-7-7,2,2,0,0,1,4,0,3,3,0,0,0,3,3h6a3,3,0,0,0,0-6,2,2,0,0,1,0-4,7,7,0,0,1,0,14Z"/>
  <!-- <text x="0" y="63" fill="#000000" font-size="5px" font-weight="bold" font-family="'Helvetica Neue', Helvetica, Arial-Unicode, Arial, Sans-serif">
    Created by tezar tantular
  </text>
  <text x="0" y="68" fill="#000000" font-size="5px" font-weight="bold" font-family="'Helvetica Neue', Helvetica, Arial-Unicode, Arial, Sans-serif">
    from the Noun Project
  </text> -->
</svg>
