<svg xmlns="http://www.w3.org/2000/svg" xmlns:xlink="http://www.w3.org/1999/xlink" version="1.1" x="0px" y="0px" viewBox="0 0 100 100" style="enable-background:new 0 0 100 100;" xml:space="preserve"><g><path d="M24.28564,31.92871c-1.10449,0-2,0.89551-2,2v32.14258c0,1.10449,0.89551,2,2,2s2-0.89551,2-2V33.92871   C26.28564,32.82422,25.39014,31.92871,24.28564,31.92871z"/><path d="M30.71436,34.32031c-1.10449,0-2,0.89551-2,2v27.35938c0,1.10449,0.89551,2,2,2s2-0.89551,2-2V36.32031   C32.71436,35.21582,31.81885,34.32031,30.71436,34.32031z"/><path d="M37.14307,40.03467c-1.10449,0-2,0.89551-2,2v15.93115c0,1.10449,0.89551,2,2,2s2-0.89551,2-2V42.03467   C39.14307,40.93018,38.24756,40.03467,37.14307,40.03467z"/><path d="M43.57129,44.94531c-1.10449,0-2,0.89551-2,2v6.10938c0,1.10449,0.89551,2,2,2s2-0.89551,2-2v-6.10938   C45.57129,45.84082,44.67578,44.94531,43.57129,44.94531z"/><path d="M5,44.94531c-1.10449,0-2,0.89551-2,2v6.10938c0,1.10449,0.89551,2,2,2s2-0.89551,2-2v-6.10938   C7,45.84082,6.10449,44.94531,5,44.94531z"/><path d="M95,44.94531c-1.10449,0-2,0.89551-2,2v6.10938c0,1.10449,0.89551,2,2,2s2-0.89551,2-2v-6.10938   C97,45.84082,96.10449,44.94531,95,44.94531z"/><path d="M17.85693,34.32031c-1.10449,0-2,0.89551-2,2v27.35938c0,1.10449,0.89551,2,2,2s2-0.89551,2-2V36.32031   C19.85693,35.21582,18.96143,34.32031,17.85693,34.32031z"/><path d="M11.42871,40.03467c-1.10449,0-2,0.89551-2,2v15.93115c0,1.10449,0.89551,2,2,2s2-0.89551,2-2V42.03467   C13.42871,40.93018,12.5332,40.03467,11.42871,40.03467z"/><path d="M75.71387,31.92871c-1.10449,0-2,0.89551-2,2v32.14258c0,1.10449,0.89551,2,2,2s2-0.89551,2-2V33.92871   C77.71387,32.82422,76.81836,31.92871,75.71387,31.92871z"/><path d="M82.14258,34.32031c-1.10449,0-2,0.89551-2,2v27.35938c0,1.10449,0.89551,2,2,2s2-0.89551,2-2V36.32031   C84.14258,35.21582,83.24707,34.32031,82.14258,34.32031z"/><path d="M88.57129,40.03467c-1.10449,0-2,0.89551-2,2v15.93115c0,1.10449,0.89551,2,2,2s2-0.89551,2-2V42.03467   C90.57129,40.93018,89.67578,40.03467,88.57129,40.03467z"/><path d="M50,46.82031c-1.10449,0-2,0.89551-2,2v2.35938c0,1.10449,0.89551,2,2,2s2-0.89551,2-2v-2.35938   C52,47.71582,51.10449,46.82031,50,46.82031z"/><path d="M69.28613,34.32031c-1.10449,0-2,0.89551-2,2v27.35938c0,1.10449,0.89551,2,2,2s2-0.89551,2-2V36.32031   C71.28613,35.21582,70.39062,34.32031,69.28613,34.32031z"/><path d="M62.85742,40.03467c-1.10449,0-2,0.89551-2,2v15.93115c0,1.10449,0.89551,2,2,2s2-0.89551,2-2V42.03467   C64.85742,40.93018,63.96191,40.03467,62.85742,40.03467z"/><path d="M56.42871,44.94531c-1.10449,0-2,0.89551-2,2v6.10938c0,1.10449,0.89551,2,2,2s2-0.89551,2-2v-6.10938   C58.42871,45.84082,57.5332,44.94531,56.42871,44.94531z"/></g></svg>
