<svg xmlns="http://www.w3.org/2000/svg" data-name="Layer 1" viewBox="0 0 512 512" x="0px" y="0px">
  <title>Artboard 89</title>
  <path d="M293.524,52.733a11.824,11.824,0,0,0-12.492.966L146.69,155H46.135A12.462,12.462,0,0,0,34,167.4V344.6A12.462,12.462,0,0,0,46.135,357H146.69L281.119,458.3a11.9,11.9,0,0,0,7.233,2.323,11.333,11.333,0,0,0,5.172-1.308A11.916,11.916,0,0,0,300,448.524V63.476A11.844,11.844,0,0,0,293.524,52.733ZM58,179h46V333H58ZM276,424.428l-118.232-89.2A11.31,11.31,0,0,0,150.712,333H128V179h22.712a11.31,11.31,0,0,0,7.056-2.224L276,87.572Z"/><path d="M359.506,205.817c26.925,27.671,26.925,72.695,0,100.366l17.2,16.736c35.9-36.9,35.9-96.939,0-133.838Z"/>
  <path d="M404.316,133c66,67.824,66,178.182,0,246.006l17.2,16.736C457.854,358.4,477.865,308.769,477.865,256s-20.011-102.4-56.347-139.739Z"/>
</svg>
