<svg xmlns="http://www.w3.org/2000/svg" xmlns:xlink="http://www.w3.org/1999/xlink" version="1.1" x="0px" y="0px" viewBox="0 0 100 100" style="enable-background:new 0 0 100 100;" xml:space="preserve"><g><rect x="4" y="3.9" width="1.9" height="1.9"/></g><g><rect x="9" y="3.9" width="1.9" height="1.9"/></g><g><rect x="14" y="3.9" width="1.9" height="1.9"/></g><g><rect x="19" y="3.9" width="1.9" height="1.9"/></g><g><rect x="24" y="3.9" width="1.9" height="1.9"/></g><g><rect x="29" y="3.9" width="1.9" height="1.9"/></g><g><rect x="34" y="3.9" width="1.9" height="1.9"/></g><g><rect x="39" y="3.9" width="1.9" height="1.9"/></g><g><rect x="44" y="3.9" width="1.9" height="1.9"/></g><g><rect x="49" y="3.9" width="1.9" height="1.9"/></g><g><rect x="54" y="3.9" width="1.9" height="1.9"/></g><g><rect x="59" y="3.9" width="1.9" height="1.9"/></g><g><rect x="64" y="3.9" width="1.9" height="1.9"/></g><g><rect x="69" y="3.9" width="1.9" height="1.9"/></g><g><rect x="74" y="3.9" width="1.9" height="1.9"/></g><g><rect x="79" y="3.9" width="1.9" height="1.9"/></g><g><rect x="84" y="3.9" width="1.9" height="1.9"/></g><g><rect x="89" y="3.9" width="1.9" height="1.9"/></g><g><rect x="94" y="3.9" width="1.9" height="1.9"/></g><g><rect x="4" y="8.9" width="1.9" height="1.9"/></g><g><rect x="9" y="8.9" width="1.9" height="1.9"/></g><g><rect x="14" y="8.9" width="1.9" height="1.9"/></g><g><rect x="19" y="8.9" width="1.9" height="1.9"/></g><g><rect x="24" y="8.9" width="1.9" height="1.9"/></g><g><rect x="29" y="8.9" width="1.9" height="1.9"/></g><g><rect x="34" y="8.9" width="1.9" height="1.9"/></g><g><rect x="39" y="8.9" width="1.9" height="1.9"/></g><g><rect x="44" y="8.9" width="1.9" height="1.9"/></g><g><rect x="49" y="8.9" width="1.9" height="1.9"/></g><g><rect x="54" y="8.9" width="1.9" height="1.9"/></g><g><rect x="59" y="8.9" width="1.9" height="1.9"/></g><g><rect x="64" y="8.9" width="1.9" height="1.9"/></g><g><rect x="69" y="8.9" width="1.9" height="1.9"/></g><g><rect x="74" y="8.9" width="1.9" height="1.9"/></g><g><rect x="79" y="8.9" width="1.9" height="1.9"/></g><g><rect x="84" y="8.9" width="1.9" height="1.9"/></g><g><rect x="89" y="8.9" width="1.9" height="1.9"/></g><g><rect x="94" y="8.9" width="1.9" height="1.9"/></g><g><rect x="4" y="13.9" width="1.9" height="1.9"/></g><g><rect x="9" y="13.9" width="1.9" height="1.9"/></g><g><rect x="14" y="13.9" width="1.9" height="1.9"/></g><g><rect x="19" y="13.9" width="1.9" height="1.9"/></g><g><rect x="24" y="13.9" width="1.9" height="1.9"/></g><g><rect x="29" y="13.9" width="1.9" height="1.9"/></g><g><rect x="34" y="13.9" width="1.9" height="1.9"/></g><g><rect x="39" y="13.9" width="1.9" height="1.9"/></g><g><rect x="44" y="13.9" width="1.9" height="1.9"/></g><g><rect x="49" y="13.9" width="1.9" height="1.9"/></g><g><rect x="54" y="13.9" width="1.9" height="1.9"/></g><g><rect x="59" y="13.9" width="1.9" height="1.9"/></g><g><rect x="64" y="13.9" width="1.9" height="1.9"/></g><g><rect x="69" y="13.9" width="1.9" height="1.9"/></g><g><rect x="74" y="13.9" width="1.9" height="1.9"/></g><g><rect x="79" y="13.9" width="1.9" height="1.9"/></g><g><rect x="84" y="13.9" width="1.9" height="1.9"/></g><g><rect x="89" y="13.9" width="1.9" height="1.9"/></g><g><rect x="94" y="13.9" width="1.9" height="1.9"/></g><g><rect x="4" y="18.9" width="1.9" height="1.9"/></g><g><rect x="9" y="18.9" width="1.9" height="1.9"/></g><g><rect x="14" y="18.9" width="1.9" height="1.9"/></g><g><rect x="19" y="18.9" width="1.9" height="1.9"/></g><g><rect x="24" y="18.9" width="1.9" height="1.9"/></g><g><rect x="29" y="18.9" width="1.9" height="1.9"/></g><g><rect x="34" y="18.9" width="1.9" height="1.9"/></g><g><rect x="39" y="18.9" width="1.9" height="1.9"/></g><g><rect x="44" y="18.9" width="1.9" height="1.9"/></g><g><rect x="49" y="18.9" width="1.9" height="1.9"/></g><g><rect x="54" y="18.9" width="1.9" height="1.9"/></g><g><rect x="59" y="18.9" width="1.9" height="1.9"/></g><g><rect x="64" y="18.9" width="1.9" height="1.9"/></g><g><rect x="69" y="18.9" width="1.9" height="1.9"/></g><g><rect x="74" y="18.9" width="1.9" height="1.9"/></g><g><rect x="79" y="18.9" width="1.9" height="1.9"/></g><g><rect x="84" y="18.9" width="1.9" height="1.9"/></g><g><rect x="89" y="18.9" width="1.9" height="1.9"/></g><g><rect x="94" y="18.9" width="1.9" height="1.9"/></g><g><rect x="4" y="23.9" width="1.9" height="1.9"/></g><g><rect x="9" y="23.9" width="1.9" height="1.9"/></g><g><rect x="14" y="23.9" width="1.9" height="1.9"/></g><g><rect x="19" y="23.9" width="1.9" height="1.9"/></g><g><rect x="24" y="23.9" width="1.9" height="1.9"/></g><g><rect x="29" y="23.9" width="1.9" height="1.9"/></g><g><rect x="34" y="23.9" width="1.9" height="1.9"/></g><g><rect x="39" y="23.9" width="1.9" height="1.9"/></g><g><rect x="44" y="23.9" width="1.9" height="1.9"/></g><g><rect x="49" y="23.9" width="1.9" height="1.9"/></g><g><rect x="54" y="23.9" width="1.9" height="1.9"/></g><g><rect x="59" y="23.9" width="1.9" height="1.9"/></g><g><rect x="64" y="23.9" width="1.9" height="1.9"/></g><g><rect x="69" y="23.9" width="1.9" height="1.9"/></g><g><rect x="74" y="23.9" width="1.9" height="1.9"/></g><g><rect x="79" y="23.9" width="1.9" height="1.9"/></g><g><rect x="84" y="23.9" width="1.9" height="1.9"/></g><g><rect x="89" y="23.9" width="1.9" height="1.9"/></g><g><rect x="94" y="23.9" width="1.9" height="1.9"/></g><g><rect x="4" y="28.9" width="1.9" height="1.9"/></g><g><rect x="9" y="28.9" width="1.9" height="1.9"/></g><g><rect x="14" y="28.9" width="1.9" height="1.9"/></g><g><rect x="19" y="28.9" width="1.9" height="1.9"/></g><g><rect x="24" y="28.9" width="1.9" height="1.9"/></g><g><rect x="29" y="28.9" width="1.9" height="1.9"/></g><g><rect x="34" y="28.9" width="1.9" height="1.9"/></g><g><rect x="39" y="28.9" width="1.9" height="1.9"/></g><g><rect x="44" y="28.9" width="1.9" height="1.9"/></g><g><rect x="49" y="28.9" width="1.9" height="1.9"/></g><g><rect x="54" y="28.9" width="1.9" height="1.9"/></g><g><rect x="59" y="28.9" width="1.9" height="1.9"/></g><g><rect x="64" y="28.9" width="1.9" height="1.9"/></g><g><rect x="69" y="28.9" width="1.9" height="1.9"/></g><g><rect x="74" y="28.9" width="1.9" height="1.9"/></g><g><rect x="79" y="28.9" width="1.9" height="1.9"/></g><g><rect x="84" y="28.9" width="1.9" height="1.9"/></g><g><rect x="89" y="28.9" width="1.9" height="1.9"/></g><g><rect x="94" y="28.9" width="1.9" height="1.9"/></g><g><rect x="4" y="33.9" width="1.9" height="1.9"/></g><g><rect x="9" y="33.9" width="1.9" height="1.9"/></g><g><rect x="14" y="33.9" width="1.9" height="1.9"/></g><g><rect x="19" y="33.9" width="1.9" height="1.9"/></g><g><rect x="24" y="33.9" width="1.9" height="1.9"/></g><g><rect x="29" y="33.9" width="1.9" height="1.9"/></g><g><rect x="34" y="33.9" width="1.9" height="1.9"/></g><g><rect x="39" y="33.9" width="1.9" height="1.9"/></g><g><rect x="44" y="33.9" width="1.9" height="1.9"/></g><g><rect x="49" y="33.9" width="1.9" height="1.9"/></g><g><rect x="54" y="33.9" width="1.9" height="1.9"/></g><g><rect x="59" y="33.9" width="1.9" height="1.9"/></g><g><rect x="64" y="33.9" width="1.9" height="1.9"/></g><g><rect x="69" y="33.9" width="1.9" height="1.9"/></g><g><rect x="74" y="33.9" width="1.9" height="1.9"/></g><g><rect x="79" y="33.9" width="1.9" height="1.9"/></g><g><rect x="84" y="33.9" width="1.9" height="1.9"/></g><g><rect x="89" y="33.9" width="1.9" height="1.9"/></g><g><rect x="94" y="33.9" width="1.9" height="1.9"/></g><g><rect x="4" y="38.9" width="1.9" height="1.9"/></g><g><rect x="9" y="38.9" width="1.9" height="1.9"/></g><g><rect x="14" y="38.9" width="1.9" height="1.9"/></g><g><rect x="19" y="38.9" width="1.9" height="1.9"/></g><g><rect x="24" y="38.9" width="1.9" height="1.9"/></g><g><rect x="29" y="38.9" width="1.9" height="1.9"/></g><g><rect x="34" y="38.9" width="1.9" height="1.9"/></g><g><rect x="39" y="38.9" width="1.9" height="1.9"/></g><g><rect x="44" y="38.9" width="1.9" height="1.9"/></g><g><rect x="49" y="38.9" width="1.9" height="1.9"/></g><g><rect x="54" y="38.9" width="1.9" height="1.9"/></g><g><rect x="59" y="38.9" width="1.9" height="1.9"/></g><g><rect x="64" y="38.9" width="1.9" height="1.9"/></g><g><rect x="69" y="38.9" width="1.9" height="1.9"/></g><g><rect x="74" y="38.9" width="1.9" height="1.9"/></g><g><rect x="79" y="38.9" width="1.9" height="1.9"/></g><g><rect x="84" y="38.9" width="1.9" height="1.9"/></g><g><rect x="89" y="38.9" width="1.9" height="1.9"/></g><g><rect x="94" y="38.9" width="1.9" height="1.9"/></g><g><rect x="4" y="43.9" width="1.9" height="1.9"/></g><g><rect x="9" y="43.9" width="1.9" height="1.9"/></g><g><rect x="14" y="43.9" width="1.9" height="1.9"/></g><g><rect x="19" y="43.9" width="1.9" height="1.9"/></g><g><rect x="24" y="43.9" width="1.9" height="1.9"/></g><g><rect x="29" y="43.9" width="1.9" height="1.9"/></g><g><rect x="34" y="43.9" width="1.9" height="1.9"/></g><g><rect x="39" y="43.9" width="1.9" height="1.9"/></g><g><rect x="44" y="43.9" width="1.9" height="1.9"/></g><g><rect x="49" y="43.9" width="1.9" height="1.9"/></g><g><rect x="54" y="43.9" width="1.9" height="1.9"/></g><g><rect x="59" y="43.9" width="1.9" height="1.9"/></g><g><rect x="64" y="43.9" width="1.9" height="1.9"/></g><g><rect x="69" y="43.9" width="1.9" height="1.9"/></g><g><rect x="74" y="43.9" width="1.9" height="1.9"/></g><g><rect x="79" y="43.9" width="1.9" height="1.9"/></g><g><rect x="84" y="43.9" width="1.9" height="1.9"/></g><g><rect x="89" y="43.9" width="1.9" height="1.9"/></g><g><rect x="94" y="43.9" width="1.9" height="1.9"/></g><g><rect x="4" y="48.9" width="1.9" height="1.9"/></g><g><rect x="9" y="48.9" width="1.9" height="1.9"/></g><g><rect x="14" y="48.9" width="1.9" height="1.9"/></g><g><rect x="19" y="48.9" width="1.9" height="1.9"/></g><g><rect x="24" y="48.9" width="1.9" height="1.9"/></g><g><rect x="29" y="48.9" width="1.9" height="1.9"/></g><g><rect x="34" y="48.9" width="1.9" height="1.9"/></g><g><rect x="39" y="48.9" width="1.9" height="1.9"/></g><g><rect x="44" y="48.9" width="1.9" height="1.9"/></g><g><rect x="49" y="48.9" width="1.9" height="1.9"/></g><g><rect x="54" y="48.9" width="1.9" height="1.9"/></g><g><rect x="59" y="48.9" width="1.9" height="1.9"/></g><g><rect x="64" y="48.9" width="1.9" height="1.9"/></g><g><rect x="69" y="48.9" width="1.9" height="1.9"/></g><g><rect x="74" y="48.9" width="1.9" height="1.9"/></g><g><rect x="79" y="48.9" width="1.9" height="1.9"/></g><g><rect x="84" y="48.9" width="1.9" height="1.9"/></g><g><rect x="89" y="48.9" width="1.9" height="1.9"/></g><g><rect x="94" y="48.9" width="1.9" height="1.9"/></g><g><rect x="4" y="53.9" width="1.9" height="1.9"/></g><g><rect x="9" y="53.9" width="1.9" height="1.9"/></g><g><rect x="14" y="53.9" width="1.9" height="1.9"/></g><g><rect x="19" y="53.9" width="1.9" height="1.9"/></g><g><rect x="24" y="53.9" width="1.9" height="1.9"/></g><g><rect x="29" y="53.9" width="1.9" height="1.9"/></g><g><rect x="34" y="53.9" width="1.9" height="1.9"/></g><g><rect x="39" y="53.9" width="1.9" height="1.9"/></g><g><rect x="44" y="53.9" width="1.9" height="1.9"/></g><g><rect x="49" y="53.9" width="1.9" height="1.9"/></g><g><rect x="54" y="53.9" width="1.9" height="1.9"/></g><g><rect x="59" y="53.9" width="1.9" height="1.9"/></g><g><rect x="64" y="53.9" width="1.9" height="1.9"/></g><g><rect x="69" y="53.9" width="1.9" height="1.9"/></g><g><rect x="74" y="53.9" width="1.9" height="1.9"/></g><g><rect x="79" y="53.9" width="1.9" height="1.9"/></g><g><rect x="84" y="53.9" width="1.9" height="1.9"/></g><g><rect x="89" y="53.9" width="1.9" height="1.9"/></g><g><rect x="94" y="53.9" width="1.9" height="1.9"/></g><g><rect x="4" y="58.9" width="1.9" height="1.9"/></g><g><rect x="9" y="58.9" width="1.9" height="1.9"/></g><g><rect x="14" y="58.9" width="1.9" height="1.9"/></g><g><rect x="19" y="58.9" width="1.9" height="1.9"/></g><g><rect x="24" y="58.9" width="1.9" height="1.9"/></g><g><rect x="29" y="58.9" width="1.9" height="1.9"/></g><g><rect x="34" y="58.9" width="1.9" height="1.9"/></g><g><rect x="39" y="58.9" width="1.9" height="1.9"/></g><g><rect x="44" y="58.9" width="1.9" height="1.9"/></g><g><rect x="49" y="58.9" width="1.9" height="1.9"/></g><g><rect x="54" y="58.9" width="1.9" height="1.9"/></g><g><rect x="59" y="58.9" width="1.9" height="1.9"/></g><g><rect x="64" y="58.9" width="1.9" height="1.9"/></g><g><rect x="69" y="58.9" width="1.9" height="1.9"/></g><g><rect x="74" y="58.9" width="1.9" height="1.9"/></g><g><rect x="79" y="58.9" width="1.9" height="1.9"/></g><g><rect x="84" y="58.9" width="1.9" height="1.9"/></g><g><rect x="89" y="58.9" width="1.9" height="1.9"/></g><g><rect x="94" y="58.9" width="1.9" height="1.9"/></g><g><rect x="4" y="63.9" width="1.9" height="1.9"/></g><g><rect x="9" y="63.9" width="1.9" height="1.9"/></g><g><rect x="14" y="63.9" width="1.9" height="1.9"/></g><g><rect x="19" y="63.9" width="1.9" height="1.9"/></g><g><rect x="24" y="63.9" width="1.9" height="1.9"/></g><g><rect x="29" y="63.9" width="1.9" height="1.9"/></g><g><rect x="34" y="63.9" width="1.9" height="1.9"/></g><g><rect x="39" y="63.9" width="1.9" height="1.9"/></g><g><rect x="44" y="63.9" width="1.9" height="1.9"/></g><g><rect x="49" y="63.9" width="1.9" height="1.9"/></g><g><rect x="54" y="63.9" width="1.9" height="1.9"/></g><g><rect x="59" y="63.9" width="1.9" height="1.9"/></g><g><rect x="64" y="63.9" width="1.9" height="1.9"/></g><g><rect x="69" y="63.9" width="1.9" height="1.9"/></g><g><rect x="74" y="63.9" width="1.9" height="1.9"/></g><g><rect x="79" y="63.9" width="1.9" height="1.9"/></g><g><rect x="84" y="63.9" width="1.9" height="1.9"/></g><g><rect x="89" y="63.9" width="1.9" height="1.9"/></g><g><rect x="94" y="63.9" width="1.9" height="1.9"/></g><g><rect x="4" y="68.9" width="1.9" height="1.9"/></g><g><rect x="9" y="68.9" width="1.9" height="1.9"/></g><g><rect x="14" y="68.9" width="1.9" height="1.9"/></g><g><rect x="19" y="68.9" width="1.9" height="1.9"/></g><g><rect x="24" y="68.9" width="1.9" height="1.9"/></g><g><rect x="29" y="68.9" width="1.9" height="1.9"/></g><g><rect x="34" y="68.9" width="1.9" height="1.9"/></g><g><rect x="39" y="68.9" width="1.9" height="1.9"/></g><g><rect x="44" y="68.9" width="1.9" height="1.9"/></g><g><rect x="49" y="68.9" width="1.9" height="1.9"/></g><g><rect x="54" y="68.9" width="1.9" height="1.9"/></g><g><rect x="59" y="68.9" width="1.9" height="1.9"/></g><g><rect x="64" y="68.9" width="1.9" height="1.9"/></g><g><rect x="69" y="68.9" width="1.9" height="1.9"/></g><g><rect x="74" y="68.9" width="1.9" height="1.9"/></g><g><rect x="79" y="68.9" width="1.9" height="1.9"/></g><g><rect x="84" y="68.9" width="1.9" height="1.9"/></g><g><rect x="89" y="68.9" width="1.9" height="1.9"/></g><g><rect x="94" y="68.9" width="1.9" height="1.9"/></g><g><rect x="4" y="73.9" width="1.9" height="1.9"/></g><g><rect x="9" y="73.9" width="1.9" height="1.9"/></g><g><rect x="14" y="73.9" width="1.9" height="1.9"/></g><g><rect x="19" y="73.9" width="1.9" height="1.9"/></g><g><rect x="24" y="73.9" width="1.9" height="1.9"/></g><g><rect x="29" y="73.9" width="1.9" height="1.9"/></g><g><rect x="34" y="73.9" width="1.9" height="1.9"/></g><g><rect x="39" y="73.9" width="1.9" height="1.9"/></g><g><rect x="44" y="73.9" width="1.9" height="1.9"/></g><g><rect x="49" y="73.9" width="1.9" height="1.9"/></g><g><rect x="54" y="73.9" width="1.9" height="1.9"/></g><g><rect x="59" y="73.9" width="1.9" height="1.9"/></g><g><rect x="64" y="73.9" width="1.9" height="1.9"/></g><g><rect x="69" y="73.9" width="1.9" height="1.9"/></g><g><rect x="74" y="73.9" width="1.9" height="1.9"/></g><g><rect x="79" y="73.9" width="1.9" height="1.9"/></g><g><rect x="84" y="73.9" width="1.9" height="1.9"/></g><g><rect x="89" y="73.9" width="1.9" height="1.9"/></g><g><rect x="94" y="73.9" width="1.9" height="1.9"/></g><g><rect x="4" y="78.9" width="1.9" height="1.9"/></g><g><rect x="9" y="78.9" width="1.9" height="1.9"/></g><g><rect x="14" y="78.9" width="1.9" height="1.9"/></g><g><rect x="19" y="78.9" width="1.9" height="1.9"/></g><g><rect x="24" y="78.9" width="1.9" height="1.9"/></g><g><rect x="29" y="78.9" width="1.9" height="1.9"/></g><g><rect x="34" y="78.9" width="1.9" height="1.9"/></g><g><rect x="39" y="78.9" width="1.9" height="1.9"/></g><g><rect x="44" y="78.9" width="1.9" height="1.9"/></g><g><rect x="49" y="78.9" width="1.9" height="1.9"/></g><g><rect x="54" y="78.9" width="1.9" height="1.9"/></g><g><rect x="59" y="78.9" width="1.9" height="1.9"/></g><g><rect x="64" y="78.9" width="1.9" height="1.9"/></g><g><rect x="69" y="78.9" width="1.9" height="1.9"/></g><g><rect x="74" y="78.9" width="1.9" height="1.9"/></g><g><rect x="79" y="78.9" width="1.9" height="1.9"/></g><g><rect x="84" y="78.9" width="1.9" height="1.9"/></g><g><rect x="89" y="78.9" width="1.9" height="1.9"/></g><g><rect x="94" y="78.9" width="1.9" height="1.9"/></g><g><rect x="4" y="83.9" width="1.9" height="1.9"/></g><g><rect x="9" y="83.9" width="1.9" height="1.9"/></g><g><rect x="14" y="83.9" width="1.9" height="1.9"/></g><g><rect x="19" y="83.9" width="1.9" height="1.9"/></g><g><rect x="24" y="83.9" width="1.9" height="1.9"/></g><g><rect x="29" y="83.9" width="1.9" height="1.9"/></g><g><rect x="34" y="83.9" width="1.9" height="1.9"/></g><g><rect x="39" y="83.9" width="1.9" height="1.9"/></g><g><rect x="44" y="83.9" width="1.9" height="1.9"/></g><g><rect x="49" y="83.9" width="1.9" height="1.9"/></g><g><rect x="54" y="83.9" width="1.9" height="1.9"/></g><g><rect x="59" y="83.9" width="1.9" height="1.9"/></g><g><rect x="64" y="83.9" width="1.9" height="1.9"/></g><g><rect x="69" y="83.9" width="1.9" height="1.9"/></g><g><rect x="74" y="83.9" width="1.9" height="1.9"/></g><g><rect x="79" y="83.9" width="1.9" height="1.9"/></g><g><rect x="84" y="83.9" width="1.9" height="1.9"/></g><g><rect x="89" y="83.9" width="1.9" height="1.9"/></g><g><rect x="94" y="83.9" width="1.9" height="1.9"/></g><g><rect x="4" y="88.9" width="1.9" height="1.9"/></g><g><rect x="9" y="88.9" width="1.9" height="1.9"/></g><g><rect x="14" y="88.9" width="1.9" height="1.9"/></g><g><rect x="19" y="88.9" width="1.9" height="1.9"/></g><g><rect x="24" y="88.9" width="1.9" height="1.9"/></g><g><rect x="29" y="88.9" width="1.9" height="1.9"/></g><g><rect x="34" y="88.9" width="1.9" height="1.9"/></g><g><rect x="39" y="88.9" width="1.9" height="1.9"/></g><g><rect x="44" y="88.9" width="1.9" height="1.9"/></g><g><rect x="49" y="88.9" width="1.9" height="1.9"/></g><g><rect x="54" y="88.9" width="1.9" height="1.9"/></g><g><rect x="59" y="88.9" width="1.9" height="1.9"/></g><g><rect x="64" y="88.9" width="1.9" height="1.9"/></g><g><rect x="69" y="88.9" width="1.9" height="1.9"/></g><g><rect x="74" y="88.9" width="1.9" height="1.9"/></g><g><rect x="79" y="88.9" width="1.9" height="1.9"/></g><g><rect x="84" y="88.9" width="1.9" height="1.9"/></g><g><rect x="89" y="88.9" width="1.9" height="1.9"/></g><g><rect x="94" y="88.9" width="1.9" height="1.9"/></g><g><rect x="4" y="93.9" width="1.9" height="1.9"/></g><g><rect x="9" y="93.9" width="1.9" height="1.9"/></g><g><rect x="14" y="93.9" width="1.9" height="1.9"/></g><g><rect x="19" y="93.9" width="1.9" height="1.9"/></g><g><rect x="24" y="93.9" width="1.9" height="1.9"/></g><g><rect x="29" y="93.9" width="1.9" height="1.9"/></g><g><rect x="34" y="93.9" width="1.9" height="1.9"/></g><g><rect x="39" y="93.9" width="1.9" height="1.9"/></g><g><rect x="44" y="93.9" width="1.9" height="1.9"/></g><g><rect x="49" y="93.9" width="1.9" height="1.9"/></g><g><rect x="54" y="93.9" width="1.9" height="1.9"/></g><g><rect x="59" y="93.9" width="1.9" height="1.9"/></g><g><rect x="64" y="93.9" width="1.9" height="1.9"/></g><g><rect x="69" y="93.9" width="1.9" height="1.9"/></g><g><rect x="74" y="93.9" width="1.9" height="1.9"/></g><g><rect x="79" y="93.9" width="1.9" height="1.9"/></g><g><rect x="84" y="93.9" width="1.9" height="1.9"/></g><g><rect x="89" y="93.9" width="1.9" height="1.9"/></g><g><rect x="94" y="93.9" width="1.9" height="1.9"/></g></svg>
