<svg xmlns:dc="http://purl.org/dc/elements/1.1/" xmlns:cc="http://creativecommons.org/ns#" xmlns:rdf="http://www.w3.org/1999/02/22-rdf-syntax-ns#" xmlns:svg="http://www.w3.org/2000/svg" xmlns="http://www.w3.org/2000/svg" xmlns:sodipodi="http://sodipodi.sourceforge.net/DTD/sodipodi-0.dtd" xmlns:inkscape="http://www.inkscape.org/namespaces/inkscape" version="1.1" x="0px" y="0px" viewBox="0 0 100 100">
  <g transform="translate(0,-952.36218)">
    <path style="text-indent:0;text-transform:none;direction:ltr;block-progression:tb;baseline-shift:baseline;color:#000000;enable-background:accumulate;" d="m 49.9998,960.36218 c -13.7469,0 -27,10.69721 -27,25.84375 0,9.43058 3.7355,15.54197 7.0625,20.24997 3.327,4.7081 5.9375,7.8975 5.9375,12.9063 l 0,12 c 0,3.9425 3.2767,7 7,7 l 0.094,0 c 0.4928,3.3656 3.4178,6 6.9062,6 3.4884,0 6.4134,-2.6344 6.9062,-6 l 0.094,0 c 3.7233,0 7,-3.0575 7,-7 l 0,-12 c 0,-5.0088 2.6105,-8.1982 5.9375,-12.9063 3.327,-4.708 7.0625,-10.81939 7.0625,-20.24997 -4e-4,-15.14654 -13.2535,-25.84375 -27.0004,-25.84375 z m 0,6 c 10.6435,0 21,8.22569 21,19.84375 0,7.93322 -2.7645,12.29116 -5.9375,16.78127 -2.7053,3.8283 -5.9202,7.8467 -6.8125,13.375 l -16.5,0 c -0.8923,-5.5283 -4.1072,-9.5467 -6.8125,-13.375 -3.173,-4.49011 -5.9375,-8.84805 -5.9375,-16.78127 0,-11.61806 10.3565,-19.84375 21,-19.84375 z m -1.3438,2 c -9.9373,1.15909 -17.6562,9.6567 -17.6562,19.875 0,2.04371 0.3045,4.01704 0.875,5.875 0.4663,1.50535 2.2447,2.43508 3.75,1.96875 1.5054,-0.46633 2.4663,-2.24465 2,-3.75 -0.3999,-1.30224 -0.625,-2.65906 -0.625,-4.09375 0,-7.2125 5.3793,-13.09394 12.3438,-13.90625 1.5458,-0.10866 2.8537,-1.57711 2.7812,-3.125 -0.3126,-2.16715 -1.7204,-2.97449 -3.4688,-2.84375 z m -6.6562,54.00002 16,0 0,2 -16,0 0,-2 z m 0,8 16,0 0,1 c 0,0.6537 -0.5023,1 -1,1 l -14,0 c -0.4977,0 -1,-0.3463 -1,-1 l 0,-1 z" fill="#000000" fill-opacity="1" marker="none" visibility="visible" display="inline" overflow="visible"/>
  </g>
</svg>
